<svg xmlns="http://www.w3.org/2000/svg" viewBox="0 0 64 64"><path fill="#5aaae7" d="M55,15V45H9V15a2.006,2.006,0,0,1,2-2H53A2.006,2.006,0,0,1,55,15Z"></path><path fill="#3d9ae2" d="M53,13V41a2.006,2.006,0,0,1-2,2H17a2.006,2.006,0,0,1-2-2H49a2.006,2.006,0,0,0,2-2V13Z"></path><polygon fill="#acabb1" points="55 45 9 45 3 57 24 57 40 57 61 57 55 45"></polygon><path fill="#ffde55" d="M51,9V39a2.006,2.006,0,0,1-2,2H15a2.006,2.006,0,0,1-2-2V9Z"></path><path fill="#898890" d="M61,57v3a1,1,0,0,1-1,1H4a1,1,0,0,1-1-1V57H61Z"></path><path fill="#ff5023" d="M51,5V9H13V5a2.006,2.006,0,0,1,2-2H49A2.006,2.006,0,0,1,51,5Z"></path><polygon fill="#00ccb3" points="47 27 47 31 44 31 41 31 41 27 44 27 47 27"></polygon><polygon fill="#c6c5ca" points="38 53 40 57 24 57 26 53 38 53"></polygon><polygon fill="#ee8700" points="36 13 36 17 32 17 28 17 28 13 36 13"></polygon><polygon fill="#ff5023" points="35 35 35 37 29 37 29 35 29 33 32 33 35 33 35 35"></polygon><polygon fill="#5aaae7" points="23 27 23 31 20 31 17 31 17 27 20 27 23 27"></polygon><rect width="2" height="2" x="10" y="52" fill="#898890"></rect><rect width="2" height="2" x="14" y="52" fill="#898890"></rect><rect width="2" height="2" x="48" y="52" fill="#898890"></rect><rect width="2" height="2" x="52" y="52" fill="#898890"></rect><rect width="2" height="2" x="15" y="48" fill="#898890"></rect><rect width="2" height="2" x="11" y="48" fill="#898890"></rect><rect width="2" height="2" x="19" y="48" fill="#898890"></rect><rect width="2" height="2" x="23" y="48" fill="#898890"></rect><rect width="2" height="2" x="27" y="48" fill="#898890"></rect><rect width="2" height="2" x="31" y="48" fill="#898890"></rect><rect width="2" height="2" x="35" y="48" fill="#898890"></rect><rect width="2" height="2" x="39" y="48" fill="#898890"></rect><rect width="2" height="2" x="43" y="48" fill="#898890"></rect><rect width="2" height="2" x="47" y="48" fill="#898890"></rect><rect width="2" height="2" x="51" y="48" fill="#898890"></rect><rect width="4" height="2" x="18" y="52" fill="#898890"></rect><rect width="4" height="2" x="42" y="52" fill="#898890"></rect><rect width="2" height="6" x="31" y="17" fill="#ff6243"></rect><path fill="#ff6243" d="M45,27H43V25H33V23H44a1,1,0,0,1,1,1Z"></path><path fill="#ff6243" d="M21,27H19V24a1,1,0,0,1,1-1H31v2H21Z"></path><rect width="2" height="8" x="31" y="25" fill="#ff6243"></rect><path fill="#ff6243" d="M29,36H20a1,1,0,0,1-1-1V31h2v3h8Z"></path><path fill="#ff6243" d="M44,36H35V34h8V31h2v4A1,1,0,0,1,44,36Z"></path><rect width="2" height="2" x="16" y="5" fill="#ed1c24"></rect><rect width="2" height="2" x="20" y="5" fill="#ed1c24"></rect><rect width="2" height="2" x="24" y="5" fill="#ed1c24"></rect><rect width="4.243" height="4.243" x="29.879" y="21.879" fill="#ff9811" transform="rotate(-45 32 24)"></rect></svg>