<svg style="position:relative" version="1.1" width="210" height="135" xmlns="http://www.w3.org/2000/svg" xmlns:xlink="http://www.w3.org/1999/xlink" xmlns:a="http://ns.adobe.com/AdobeSVGViewerExtensions/3.0/" ng-if="$root.removeAll != true" class="ng-scope">
                                <g ng-preview="" ng-model="config" ng-shapes="indexedShapes" ng-etape="etape" class="ng-presentation ng-pristine ng-untouched ng-valid ng-isolate-scope ng-not-empty" transform="translate(0 22.25)">
                                    <g class="logo-preview ng-scope" transform="scale(0.39622641509433965)">
                                        <g class="logo-ctn"><g class="logo" id="item-wmntg3x9xgzxhaf6y6e0bk6vfg8vtx6h" transform="translate(140 0) scale(1.9786309308659058)"><path d="M72.49.011L54.117 38.863 46.566 54.83l-6.335 13.401h11.015L66.94 35.042l9.295-19.656L83.504.011zM16.495 32.196l11.033-12.717.075-.087L38.386 6.963l.001-.001.002-.002h-.006L29.274 0l-5.572 6.424h.003l-.046.052-10.732 12.372-.301.348-5.082 5.859L0 33.835l7.488 8.784 5.084 5.859.299.346 10.731 12.373.055.061 5.572 6.424 9.11-6.963-.005-.006-10.788-12.432-.072-.086-11.035-12.716-1.392-1.604-.003-.004.006-.008h.009l.049-.052-.009-.008.005-.006z" fill="#178fcb"></path><path d="M118.806 24.561l-5.084-5.987-.302-.355-10.73-12.644-.053-.061-14.678.557 10.787 12.703.075.09 11.034 12.997 1.39 1.638.004.003-.009.008.05.054h.008l.005.007-.002.005-1.392 1.639-11.034 12.996-.074.088-10.787 12.705-.006.007 9.114 7.116 5.57-6.566.055-.061 10.73-12.645.302-.355 5.081-5.988 7.488-8.974z" fill="#3fbaeb"></path><path d="M113.42 18.219L102.69 5.575l-3.843 13.196 14.573-.552z" fill="#198fca"></path><path d="M98.746 18.774l.075.09.026-.093-.101.003z" fill="#000000"></path><path d="M109.855 31.861l1.39 1.638 7.561-8.938-5.084-5.987-3.867 13.287z" fill="#253875"></path><path d="M113.42 18.219l-14.573.552-.026.093 11.034 12.997 3.867-13.287-.302-.355z" fill="#0e59a1"></path><path d="M118.806 24.561l-7.561 8.938.004.003-.009.008.05.054 15.058-.026-7.542-8.977z" fill="#253875"></path><path d="M97.122 68.127l-9.114-7.116.006-.007 14.678.557-5.57 6.566z" fill="#178fcb"></path><path d="M113.477 48.855L102.747 61.5l-3.843-13.197 14.573.552z" fill="#198fca"></path><path d="M102.747 61.5l-.055.061-14.678-.557 10.787-12.705.103.004 3.843 13.197z" fill="#3fbaeb"></path><path d="M98.801 48.299l.074-.088.029.092-.103-.004z" fill="#000000"></path><path d="M109.909 35.215l1.392-1.639 7.559 8.936-5.081 5.988-3.87-13.285z" fill="#0e59a1"></path><path d="M113.477 48.855l-14.573-.552-.029-.092 11.034-12.996 3.87 13.285-.302.355z" fill="#0070ae"></path><path d="M118.86 42.512l-7.559-8.936.002-.005-.007-.009.05-.052 15.002.028-7.488 8.974z" fill="#0e59a1"></path><path d="M12.927 18.848L23.659 6.476l3.842 12.913-14.574-.541z" fill="#198fca"></path><path d="M23.659 6.476l.052-.059 14.678.543-10.786 12.432-.102-.003-3.842-12.913z" fill="#3fbaeb"></path><path d="M27.603 19.392l-.075.087-.027-.09.102.003z" fill="#000000"></path><path d="M16.495 32.196l-1.391 1.601-7.56-8.742 5.082-5.859 3.869 13z" fill="#253875"></path><path d="M12.927 18.848l14.574.541.027.09-11.033 12.717-3.869-13 .301-.348z" fill="#0e59a1"></path><path d="M7.544 25.055l7.56 8.742-.005.006.009.008-.049.052L0 33.835l7.544-8.78z" fill="#253875"></path><path d="M29.229 67.682l9.11-6.963-.005-.006-14.677.545 5.572 6.424z" fill="#178fcb"></path><path d="M12.871 48.824l10.731 12.373 3.845-12.914-14.576.541z" fill="#198fca"></path><path d="M23.602 61.197l.055.061 14.677-.545-10.788-12.432-.099.002-3.845 12.914z" fill="#3fbaeb"></path><path d="M27.546 48.281l-.072-.086-.027.088.099-.002z" fill="#000000"></path><path d="M16.439 35.479l-1.392-1.604-7.559 8.744 5.084 5.859 3.867-12.999z" fill="#0e59a1"></path><path d="M12.871 48.824l14.576-.541.027-.088-11.035-12.716-3.867 12.999.299.346z" fill="#0070ae"></path><path d="M7.488 42.619l7.559-8.744-.003-.004.008-.01-.051-.052L0 33.835l7.488 8.784zM40.231 68.231h10.65L46.566 54.83l-6.335 13.401zM76.235 15.386L72.596.011h-.106L54.117 38.863l12.823-3.821 9.295-19.656z" fill="#0e59a1"></path><path d="M66.94 35.042l-12.823 3.821-7.551 15.967 4.315 13.401h.365L66.94 35.042z" fill="#198fca"></path></g></g><g class="main" transform="translate(0 150.01666259765625)"><g class="formes"></g><g class="inline-shape"><g class="contents"><g id="texts"><g class="firstLine" transform="translate(152.1999969482422 0) scale(1)"><text id="item-m0rrv0mh141xzvway4ombjbiv8cb430e" key="0" dominant-baseline="auto" alignment-baseline="auto" font-family="Designosaur" font-size="62px" fill="#198fca" letter-spacing="0" xml:space="preserve" class="" transform="translate(0 55.333335876464844)">Eduhack</text></g><g class="sndLine" transform="translate(265 74.13279773342994)  scale(1)"></g><g class="thirdLine" transform="translate(265 67.13279773342994)  scale(1)"></g><g class="initial"></g></g></g></g></g>
                                    </g>
                                </g> 
                        </svg>