<svg xmlns="http://www.w3.org/2000/svg" viewBox="0 0 48 48" ><path fill="#41a571" d="M17 4L10 4 20 22 27 22z"></path><path fill="#398e5f" d="M27 22L26.932 21.869 26.865 22zM22.828 14.438L19.384 20.861 20.501 23.042 23.984 16.609z"></path><path fill="#5ec08f" d="M31 4L21 22 28 22 38 4z"></path><path fill="#ffba57" d="M24 21A12 12 0 1 0 24 45A12 12 0 1 0 24 21Z"></path><path fill="#ffe082" d="M24,23c-5.521,0-10,4.478-10,10c0,5.521,4.479,10,10,10s10-4.479,10-10C34,27.478,29.521,23,24,23z M16.014,33.307c-0.026,0.006-0.052-0.011-0.058-0.038c-0.001-0.006-0.001-0.013,0-0.019L16,33l0.052,0.249C16.057,33.276,16.041,33.302,16.014,33.307z M17.229,37.234c-0.267,0.165-0.617,0.082-0.782-0.185c-0.02-0.033-0.038-0.07-0.051-0.105l-0.175-0.485c-0.096-0.268,0.042-0.563,0.31-0.659c0.233-0.084,0.488,0.011,0.613,0.214l0.27,0.439C17.579,36.719,17.496,37.069,17.229,37.234z M19.953,39.937c-0.274,0.387-0.81,0.478-1.197,0.204c-0.027-0.019-0.053-0.04-0.077-0.061l-0.382-0.343c-0.341-0.306-0.369-0.83-0.063-1.171c0.284-0.317,0.758-0.364,1.097-0.123l0.419,0.297C20.136,39.014,20.227,39.55,19.953,39.937z M23.442,41.06c-0.112,0.528-0.631,0.866-1.159,0.754c-0.008-0.002-0.021-0.005-0.029-0.006l-0.498-0.121c-0.521-0.127-0.84-0.651-0.713-1.172c0.124-0.511,0.633-0.827,1.144-0.72l0.502,0.106C23.217,40.013,23.554,40.531,23.442,41.06z M23,37v-7.391l-2,0.666v-1.76L24.813,27H25v10H23z M26.248,41.684l-0.498,0.121c-0.524,0.128-1.052-0.193-1.18-0.718s0.194-1.052,0.718-1.18c0.008-0.002,0.02-0.005,0.028-0.006l0.501-0.107c0.523-0.111,1.038,0.223,1.149,0.747C27.076,41.054,26.755,41.56,26.248,41.684z M29.703,39.732l-0.381,0.344c-0.351,0.317-0.893,0.289-1.21-0.062s-0.289-0.893,0.062-1.21c0.024-0.022,0.054-0.045,0.08-0.064l0.419-0.296c0.373-0.263,0.888-0.174,1.151,0.198C30.069,38.987,30.01,39.456,29.703,39.732z M31.778,36.457l-0.174,0.482c-0.106,0.294-0.43,0.446-0.724,0.34c-0.294-0.106-0.446-0.43-0.34-0.724c0.013-0.036,0.031-0.073,0.051-0.105l0.269-0.437c0.149-0.241,0.464-0.316,0.706-0.168C31.775,35.976,31.858,36.233,31.778,36.457z M31.948,33.268c-0.001-0.006-0.001-0.013,0-0.018L32,33l0.044,0.251c0.005,0.026-0.013,0.052-0.04,0.056S31.953,33.294,31.948,33.268z"></path></svg>