<svg xmlns="http://www.w3.org/2000/svg" viewBox="0 0 64 64"><g data-name="Stroke copy 3"><path fill="#cff09e" d="M49,16v6a4,4,0,0,1-3.91-3.15,3.011,3.011,0,0,1-1.92-1.86,2.982,2.982,0,0,0,2.36-1.4,2.921,2.921,0,0,0,3.39-.29A3.266,3.266,0,0,1,49,16Z"></path><rect width="18" height="18" x="31" y="26" fill="#a8dba8" rx="3"></rect><path fill="#79bd9a" d="M49,30h2a2,2,0,0,1,2,2v4a2,2,0,0,1-2,2H49a0,0,0,0,1,0,0V30A0,0,0,0,1,49,30Z"></path><path fill="#79bd9a" d="M29,30h2a0,0,0,0,1,0,0v8a0,0,0,0,1,0,0H29a2,2,0,0,1-2-2V32A2,2,0,0,1,29,30Z"></path><path fill="#cff09e" d="M49.99,13.1A2.98,2.98,0,0,1,47,16a2.95,2.95,0,0,1-1.47-.41,2.977,2.977,0,0,1-5.4-.77A3.871,3.871,0,0,1,39,15a3.961,3.961,0,0,1-3.1-1.5A3.956,3.956,0,0,1,34,14a4,4,0,0,1-.96-7.88,3.585,3.585,0,0,0-.13.99,4,4,0,0,0,4,4,3.956,3.956,0,0,0,1.9-.5,3.961,3.961,0,0,0,3.1,1.5,3.8,3.8,0,0,0,1.12-.18,2.985,2.985,0,0,0,5.41.77,2.921,2.921,0,0,0,1.47.41A.22.22,0,0,0,49.99,13.1Z"></path><circle cx="23" cy="20" r="2" fill="#79bd9a"></circle><circle cx="29" cy="12" r="2" fill="#79bd9a"></circle><circle cx="7" cy="14" r="2" fill="#79bd9a"></circle><circle cx="16" cy="16" r="2" fill="#79bd9a"></circle><circle cx="5" cy="25" r="2" fill="#79bd9a"></circle><circle cx="39" cy="16" r="2" fill="#79bd9a"></circle><circle cx="49" cy="22" r="2" fill="#79bd9a"></circle><circle cx="52" cy="9" r="2" fill="#79bd9a"></circle><rect width="10" height="5" x="35" y="44" fill="#79bd9a"></rect><path fill="#a8dba8" d="M61,53v8H49l-6-6H32l6,6H17V49H57A4,4,0,0,1,61,53Z"></path><polygon fill="#cff09e" points="32 55 38 61 29 61 29 55 32 55"></polygon><polygon fill="#cff09e" points="51 55 51 61 49 61 43 55 51 55"></polygon><path fill="#cff09e" d="M23.026,50a9.068,9.068,0,0,0-.156-1.642l2.183-1.26-3-5.2-2.184,1.26a8.978,8.978,0,0,0-2.843-1.639V39h-6v2.523a8.989,8.989,0,0,0-2.843,1.639L6,41.9,3,47.1l2.183,1.26a8.665,8.665,0,0,0,0,3.284L3,52.9l3,5.2,2.183-1.26a8.989,8.989,0,0,0,2.843,1.639V61h6V58.477a8.978,8.978,0,0,0,2.843-1.639l2.184,1.26,3-5.2-2.183-1.26A9.068,9.068,0,0,0,23.026,50Zm-9,4a4,4,0,1,1,4-4A4,4,0,0,1,14.026,54Z"></path><circle cx="22" cy="31" r="2" fill="#79bd9a"></circle></g><g data-name="Stroke Close copy"><circle cx="36" cy="33" r="1" fill="#3b8686"></circle><circle cx="44" cy="33" r="1" fill="#3b8686"></circle><path fill="#3b8686" d="M36,40h8a1,1,0,0,0,0-2H36a1,1,0,0,0,0,2Z"></path><path fill="#3b8686" d="M37.211,8.658A4.212,4.212,0,0,0,41,11a1,1,0,0,0,0-2,2.224,2.224,0,0,1-2-1.236l-.1-.211a1,1,0,1,0-1.79.894Z"></path><circle cx="46" cy="10" r="1" fill="#3b8686"></circle><path fill="#3b8686" d="M57,48H46V45a4,4,0,0,0,4-4V39h1a3,3,0,0,0,3-3V32a2.994,2.994,0,0,0-2.624-2.962l6.331-6.331A1,1,0,0,0,58,22V9a1,1,0,0,0-1-1H54.816a2.966,2.966,0,0,0-4.67-1.34A3.984,3.984,0,0,0,47.874,6,4.007,4.007,0,0,0,44,3a3.909,3.909,0,0,0-1.6.343A4.931,4.931,0,0,0,39,2a5.025,5.025,0,0,0-4.589,3.02A4.966,4.966,0,0,0,29.1,9.01c-.035,0-.067-.01-.1-.01a2.993,2.993,0,0,0-1,5.816V20a1,1,0,0,0,.293.707l4.5,4.5a3.992,3.992,0,0,0-2.715,3.036L24,24.446v-1.63a3,3,0,1,0-2,0V25a1,1,0,0,0,.47.848l5.4,3.376A3,3,0,0,0,26,32v4a3,3,0,0,0,3,3h1v2a4,4,0,0,0,4,4v3H25.491l.062-.036a1,1,0,0,0,.366-1.366l-3-5.2a1,1,0,0,0-1.366-.366l-1.06.612,2.542-4.123A1,1,0,0,0,23.184,37V33.816a3,3,0,1,0-2,0v2.9l-2.69,4.362c-.157-.078-.307-.165-.468-.235V39a1,1,0,0,0-1-1H17V18.816a3,3,0,1,0-2,0V38H13V24a1,1,0,0,0-.293-.707L8,18.586v-1.77a3,3,0,1,0-2,0V19a1,1,0,0,0,.293.707L11,24.414V38.005a1,1,0,0,0-.974.995v1.843c-.3.132-.593.283-.88.443L9,33.98a1,1,0,0,0-.293-.687L6,30.586v-2.77a3,3,0,1,0-2,0V31a1,1,0,0,0,.293.707l2.715,2.715.14,6.988L6.5,41.036a1,1,0,0,0-1.366.366l-3,5.2A1,1,0,0,0,2.5,47.964l1.593.92a9.328,9.328,0,0,0,0,2.232l-1.593.92A1,1,0,0,0,2.134,53.4l3,5.2a1,1,0,0,0,1.366.366l1.6-.921a9.851,9.851,0,0,0,1.931,1.114V61a1,1,0,0,0,1,1h6a1,1,0,0,0,1-1V59.157a9.859,9.859,0,0,0,1.932-1.114l1.6.921a1,1,0,0,0,1.366-.366l3-5.2a1,1,0,0,0-.366-1.366l-1.593-.92A9.418,9.418,0,0,0,24.026,50H57a3,3,0,0,1,3,3v8a1,1,0,0,0,2,0V53A5.006,5.006,0,0,0,57,48ZM23,19a1,1,0,1,1-1,1A1,1,0,0,1,23,19Zm-.816,11a1,1,0,1,1-1,1A1,1,0,0,1,22.184,30ZM16,15a1,1,0,1,1-1,1A1,1,0,0,1,16,15ZM7,13a1,1,0,1,1-1,1A1,1,0,0,1,7,13ZM5,24a1,1,0,1,1-1,1A1,1,0,0,1,5,24Zm47,8v4a1,1,0,0,1-1,1H50V31h1A1,1,0,0,1,52,32Zm4-10.414-6.207,6.206A3.991,3.991,0,0,0,46,25H45V23.721l1.3-.434a2.993,2.993,0,1,0,3.7-4.1V16c0-.116-.011-.235-.023-.354A3.969,3.969,0,0,0,51,13a3.283,3.283,0,0,0-.019-.354,4.1,4.1,0,0,0,.5-.7A2.936,2.936,0,0,0,54.816,10H56ZM38,16a1,1,0,1,1,1,1A1,1,0,0,1,38,16Zm1.929,5.372A1.012,1.012,0,0,0,40,21V18.816a3,3,0,0,0,1.479-1.131,3.923,3.923,0,0,0,1.045.27,4.035,4.035,0,0,0,1.738,1.632,4.97,4.97,0,0,0,1.171,1.881l-1.749.583A1,1,0,0,0,43,23v2H38.477ZM50,22a1,1,0,1,1-1-1A1,1,0,0,1,50,22Zm-2-5.142v2.326a2.989,2.989,0,0,0-1.214.809,2.965,2.965,0,0,1-.715-1.358,1,1,0,0,0-.674-.742,1.994,1.994,0,0,1-.61-.335,3.967,3.967,0,0,0,1.047-.743A3.766,3.766,0,0,0,47,17,3.939,3.939,0,0,0,48,16.858ZM52,8a1,1,0,1,1-1,1A1,1,0,0,1,52,8ZM34,7a2.968,2.968,0,0,1,.815.131,1,1,0,0,0,1.252-.755A3.011,3.011,0,0,1,39,4a2.974,2.974,0,0,1,2.4,1.216c.01.014.026.02.037.033A2.978,2.978,0,0,1,42,7a1,1,0,0,0,2,0,4.958,4.958,0,0,0-.4-1.932A1.9,1.9,0,0,1,44,5a2,2,0,0,1,2,1.974c0,.021-.014.118-.016.139A1,1,0,0,0,47.32,8.13a1.853,1.853,0,0,1,1.763.195,2.9,2.9,0,0,0,.654,2.622,2.045,2.045,0,0,1-.468.581,1,1,0,0,0-.332,1A2.052,2.052,0,0,1,49,13a1.99,1.99,0,0,1-2.966,1.726c-.023-.014-.05-.014-.074-.026A2,2,0,0,1,45,13a1,1,0,0,0-2,0,4,4,0,0,0,1.048,2.687A1.96,1.96,0,0,1,43,16a1.875,1.875,0,0,1-1.031-.306,2.976,2.976,0,0,0-4.58-2.216,2.9,2.9,0,0,1-.71-.606c-.016-.02-.038-.03-.054-.047A2.965,2.965,0,0,1,36,11a1,1,0,0,0-2,0,4.993,4.993,0,0,0,.419,1.96,2.933,2.933,0,0,1-2.438-.775c0-.062.019-.121.019-.185a2.985,2.985,0,0,0-.979-2.2A2.994,2.994,0,0,1,34,7Zm-5,4a1,1,0,1,1-1,1A1,1,0,0,1,29,11Zm1,3.816a3,3,0,0,0,1.156-.739,4.931,4.931,0,0,0,4.513.623,5.148,5.148,0,0,0,.494.368A2.936,2.936,0,0,0,38,18.816v1.992L36.323,25h-.909L30,19.586ZM29,37a1,1,0,0,1-1-1V32a1,1,0,0,1,1-1h1v6Zm3,4V29a2,2,0,0,1,2-2H46a2,2,0,0,1,2,2V41a2,2,0,0,1-2,2H34A2,2,0,0,1,32,41ZM21.687,56.732l-1.318-.761a1,1,0,0,0-1.15.107,7.932,7.932,0,0,1-2.527,1.456,1,1,0,0,0-.666.943V60h-4V58.477a1,1,0,0,0-.666-.943,7.938,7.938,0,0,1-2.526-1.456,1,1,0,0,0-1.15-.107l-1.318.761-2-3.464,1.317-.76a1,1,0,0,0,.483-1.049,7.672,7.672,0,0,1,0-2.918,1,1,0,0,0-.483-1.049l-1.317-.76,2-3.464,1.318.761a1,1,0,0,0,1.15-.107,7.938,7.938,0,0,1,2.526-1.456,1,1,0,0,0,.666-.943V40h4v1.523a1,1,0,0,0,.666.943,7.932,7.932,0,0,1,2.527,1.456,1,1,0,0,0,1.15.107l1.318-.761,2,3.464-1.317.76a1,1,0,0,0-.483,1.047,7.748,7.748,0,0,1,0,2.922,1,1,0,0,0,.483,1.047l1.317.76ZM36,48V45h8v3Z"></path><path fill="#3b8686" d="M51,54H29a1,1,0,0,0-1,1v6a1,1,0,0,0,1,1H51a1,1,0,0,0,1-1V55A1,1,0,0,0,51,54Zm-8.414,2,4,4H38.414l-4-4ZM30,56h1.586l4,4H30Zm20,4h-.586l-4-4H50Z"></path><path fill="#3b8686" d="M14.026,45a5,5,0,1,0,5,5A5.006,5.006,0,0,0,14.026,45Zm0,8a3,3,0,1,1,3-3A3,3,0,0,1,14.026,53Z"></path></g></svg>