<svg xmlns="http://www.w3.org/2000/svg" viewBox="0 0 48 48"><path fill="#41a571" d="M16.973 3.983L9.973 3.983 19.973 21.983 26.973 21.983z"></path><path fill="#398e5f" d="M26.973 21.983L26.905 21.852 26.839 21.983zM22.802 14.42L19.357 20.844 20.474 23.025 23.958 16.592z"></path><path fill="#5ec08f" d="M30.973 3.983L20.973 21.983 27.973 21.983 37.973 3.983z"></path><path fill="#9fa8da" d="M23.973 20.982999999999997A12 12 0 1 0 23.973 44.983A12 12 0 1 0 23.973 20.982999999999997Z"></path><path fill="#c5cae9" d="M23.973,22.983c-5.521,0-10,4.479-10,10s4.479,10,10,10s10-4.479,10-10S29.495,22.983,23.973,22.983z M15.987,33.29c-0.026,0.006-0.052-0.011-0.058-0.038c-0.001-0.006-0.001-0.013,0-0.019l0.044-0.251l0.052,0.249C16.031,33.258,16.014,33.284,15.987,33.29z M17.202,37.217c-0.267,0.165-0.617,0.082-0.782-0.185c-0.02-0.033-0.038-0.07-0.051-0.106l-0.175-0.485c-0.096-0.268,0.042-0.563,0.31-0.659c0.234-0.084,0.488,0.011,0.613,0.214l0.27,0.438C17.552,36.702,17.469,37.052,17.202,37.217z M19.926,39.92c-0.274,0.387-0.81,0.478-1.197,0.204c-0.027-0.019-0.053-0.04-0.077-0.061l-0.382-0.343c-0.341-0.306-0.369-0.83-0.063-1.171c0.284-0.317,0.758-0.364,1.097-0.122l0.419,0.297C20.11,38.997,20.201,39.533,19.926,39.92z M23.416,41.042c-0.112,0.528-0.631,0.866-1.159,0.754c-0.008-0.002-0.021-0.005-0.029-0.006l-0.498-0.121c-0.521-0.127-0.84-0.651-0.713-1.172c0.124-0.511,0.633-0.827,1.144-0.72l0.502,0.106C23.19,39.995,23.528,40.514,23.416,41.042z M26.222,41.666l-0.498,0.121c-0.524,0.128-1.052-0.194-1.18-0.718s0.194-1.052,0.718-1.18c0.008-0.002,0.02-0.005,0.028-0.006l0.501-0.107c0.523-0.111,1.038,0.223,1.149,0.746C27.049,41.037,26.728,41.542,26.222,41.666z M26.973,36.983h-5.837v-1.343l2.68-3.406c0.34-0.471,0.591-0.885,0.751-1.241c0.161-0.356,0.242-0.697,0.242-1.024c0-0.439-0.076-0.784-0.228-1.034c-0.152-0.249-0.37-0.374-0.656-0.374c-0.313,0-0.561,0.146-0.745,0.437c-0.183,0.291-0.275,0.701-0.275,1.229h-1.932c0-0.605,0.125-1.159,0.378-1.66c0.251-0.501,0.604-0.89,1.061-1.169c0.455-0.277,0.971-0.416,1.547-0.416c0.884,0,1.57,0.243,2.058,0.728c0.487,0.486,0.731,1.176,0.731,2.07c0,0.556-0.135,1.119-0.404,1.691c-0.27,0.571-0.759,1.277-1.466,2.116l-1.272,1.817h3.367V36.983z M29.677,39.714l-0.381,0.344c-0.351,0.317-0.893,0.289-1.21-0.062c-0.317-0.351-0.289-0.893,0.062-1.21c0.024-0.022,0.054-0.045,0.08-0.064l0.419-0.296c0.373-0.263,0.888-0.175,1.151,0.198C30.042,38.97,29.984,39.438,29.677,39.714z M31.751,36.439l-0.174,0.482c-0.106,0.294-0.43,0.446-0.724,0.34c-0.294-0.106-0.446-0.43-0.34-0.724c0.013-0.036,0.031-0.073,0.051-0.105l0.269-0.437c0.149-0.241,0.464-0.316,0.706-0.168C31.748,35.958,31.832,36.215,31.751,36.439z M31.922,33.25c-0.001-0.006-0.001-0.013,0-0.018l0.052-0.249l0.044,0.251c0.005,0.026-0.013,0.052-0.04,0.056S31.926,33.277,31.922,33.25z"></path></svg>