<svg xmlns="http://www.w3.org/2000/svg" viewBox="0 0 64 64"><rect width="2" height="7" x="31" y="51" fill="#fda22e"></rect><path fill="#fda22e" d="M42,58h-2v-1.586l-2.707-2.707C37.105,53.52,37,53.265,37,53v-2.76h2v2.346l2.707,2.707	C41.895,55.48,42,55.735,42,56V58z"></path><path fill="#fda22e" d="M51,58h-2v-1.586l-4.707-4.707C44.105,51.52,44,51.265,44,51v-3.84h2v3.426l4.707,4.707	C50.895,55.48,51,55.735,51,56V58z"></path><path fill="#fda22e" d="M59,58h-2v-1.586l-6.707-6.707C50.105,49.52,50,49.265,50,49v-7.35h2v6.936l6.707,6.707	C58.895,55.48,59,55.735,59,56V58z"></path><path fill="#fda22e" d="M24,58h-2v-2c0-0.265,0.105-0.52,0.293-0.707L25,52.586V50.24h2V53c0,0.265-0.105,0.52-0.293,0.707	L24,56.414V58z"></path><path fill="#fda22e" d="M15,58h-2v-2c0-0.265,0.105-0.52,0.293-0.707L18,50.586V47.16h2V51c0,0.265-0.105,0.52-0.293,0.707	L15,56.414V58z"></path><path fill="#fda22e" d="M7,58H5v-2c0-0.265,0.105-0.52,0.293-0.707L12,48.586V41.65h2V49c0,0.265-0.105,0.52-0.293,0.707	L7,56.414V58z"></path><rect width="2" height="2" x="57" y="60" fill="#fda22e"></rect><rect width="2" height="2" x="49" y="60" fill="#fda22e"></rect><rect width="2" height="2" x="40" y="60" fill="#fda22e"></rect><rect width="2" height="2" x="5" y="60" fill="#fda22e"></rect><rect width="2" height="2" x="13" y="60" fill="#fda22e"></rect><rect width="2" height="2" x="22" y="60" fill="#fda22e"></rect><rect width="2" height="2" x="31" y="60" fill="#fda22e"></rect><circle cx="32" cy="27" r="24" fill="#4bbee5"></circle><path fill="#3c7eb0" d="M32,3c13.25,0,24,10.75,24,24S45.25,51,32,51V3z"></path><path fill="#161828" d="M32,52c13.785,0,25-11.215,25-25S45.785,2,32,2S7,13.215,7,27S18.215,52,32,52z M22.02,28	c0.051,1.593,0.224,3.142,0.486,4.639c-2.001,0.27-3.943,0.627-5.812,1.062c-0.385-1.816-0.618-3.726-0.677-5.701H22.02z M31,40.021	c-1.393,0.024-2.773,0.094-4.127,0.217c-0.754-1.795-1.44-3.762-1.952-5.866c1.991-0.203,4.023-0.322,6.079-0.351V40.021z M31,42.021v5.903c-0.94-1.409-2.13-3.378-3.264-5.754C28.81,42.086,29.901,42.04,31,42.021z M33,42.021	c1.098,0.02,2.188,0.065,3.26,0.149c-1.133,2.372-2.321,4.34-3.26,5.75V42.021z M33,40.021v-6c2.056,0.029,4.087,0.148,6.077,0.35	c-0.513,2.104-1.2,4.07-1.955,5.866C35.77,40.114,34.392,40.045,33,40.021z M33,32.021V28h6.966	c-0.053,1.507-0.215,2.981-0.474,4.405C37.366,32.182,35.196,32.051,33,32.021z M33,26v-4.021c2.196-0.03,4.367-0.161,6.493-0.384	c0.259,1.424,0.42,2.898,0.473,4.405H33z M33,19.979v-6c1.393-0.024,2.773-0.094,4.127-0.217c0.754,1.795,1.44,3.762,1.952,5.866	C37.088,19.831,35.056,19.95,33,19.979z M33,11.979V6.076c0.94,1.409,2.13,3.378,3.264,5.754C35.191,11.914,34.099,11.96,33,11.979z M31,11.979c-1.098-0.02-2.188-0.065-3.26-0.149c1.133-2.372,2.321-4.34,3.26-5.75V11.979z M31,13.979v6	c-2.056-0.029-4.087-0.148-6.077-0.35c0.513-2.104,1.2-4.07,1.955-5.866C28.23,13.886,29.608,13.955,31,13.979z M31,21.979V26	h-6.966c0.053-1.507,0.215-2.981,0.474-4.405C26.634,21.818,28.804,21.949,31,21.979z M31,28v4.021	c-2.196,0.03-4.367,0.161-6.493,0.384c-0.259-1.424-0.42-2.898-0.473-4.405H31z M22.907,34.6c0.489,2.096,1.14,4.065,1.865,5.867	c-1.809,0.237-3.55,0.569-5.211,0.978c-0.982-1.743-1.789-3.696-2.386-5.805C19.016,35.213,20.931,34.862,22.907,34.6z M25.595,42.382c1.483,3.239,3.111,5.798,4.238,7.402c-3.555-0.695-6.743-3.069-9.159-6.554	C22.244,42.869,23.892,42.585,25.595,42.382z M34.167,49.783c1.127-1.603,2.755-4.163,4.238-7.402	c1.703,0.203,3.351,0.487,4.921,0.848C40.909,46.714,37.721,49.088,34.167,49.783z M39.228,40.467	c0.726-1.802,1.376-3.772,1.865-5.867c1.976,0.262,3.891,0.613,5.731,1.041c-0.597,2.108-1.404,4.061-2.386,5.804	C42.778,41.037,41.037,40.704,39.228,40.467z M41.493,32.639c0.263-1.496,0.435-3.046,0.486-4.639h6.003	c-0.059,1.974-0.291,3.885-0.677,5.701C45.437,33.265,43.494,32.909,41.493,32.639z M49.982,28h4.993	c-0.114,2.641-0.677,5.166-1.611,7.505c-1.316-0.487-2.684-0.938-4.123-1.328C49.666,32.208,49.921,30.138,49.982,28z M49.982,26	c-0.061-2.138-0.316-4.208-0.741-6.176c1.439-0.39,2.807-0.841,4.123-1.328c0.934,2.339,1.498,4.864,1.611,7.505H49.982z M47.982,26	H41.98c-0.051-1.593-0.224-3.142-0.486-4.639c2.001-0.27,3.943-0.627,5.812-1.062C47.691,22.115,47.923,24.026,47.982,26z M41.093,19.4c-0.489-2.096-1.14-4.065-1.865-5.867c1.809-0.237,3.55-0.569,5.21-0.978c0.982,1.743,1.789,3.696,2.386,5.804	C44.984,18.787,43.069,19.138,41.093,19.4z M38.405,11.618c-1.483-3.239-3.111-5.798-4.238-7.402	c3.555,0.695,6.743,3.069,9.159,6.554C41.756,11.131,40.108,11.415,38.405,11.618z M29.833,4.217	c-1.127,1.603-2.755,4.163-4.238,7.402c-1.703-0.203-3.351-0.487-4.921-0.848C23.091,7.286,26.279,4.912,29.833,4.217z M24.772,13.533c-0.726,1.802-1.376,3.772-1.865,5.867c-1.976-0.262-3.891-0.613-5.731-1.041c0.597-2.108,1.404-4.061,2.386-5.805	C21.222,12.963,22.963,13.296,24.772,13.533z M22.507,21.361c-0.263,1.496-0.435,3.046-0.486,4.639h-6.003	c0.059-1.974,0.291-3.885,0.677-5.701C18.563,20.735,20.506,21.091,22.507,21.361z M14.018,26H9.025	c0.114-2.641,0.677-5.166,1.611-7.505c1.316,0.487,2.684,0.938,4.123,1.328C14.334,21.792,14.079,23.862,14.018,26z M14.018,28	c0.061,2.138,0.316,4.208,0.741,6.176c-1.439,0.39-2.807,0.841-4.123,1.328C9.702,33.166,9.139,30.641,9.025,28H14.018z M15.244,36.115c0.597,2.108,1.389,4.08,2.354,5.865c-0.803,0.241-1.579,0.501-2.325,0.782c-1.518-1.61-2.805-3.436-3.812-5.429	C12.672,36.888,13.924,36.474,15.244,36.115z M16.874,44.304c0.575-0.197,1.169-0.382,1.776-0.555	c0.952,1.462,2.026,2.766,3.2,3.883C20.044,46.741,18.374,45.618,16.874,44.304z M45.35,43.749c0.608,0.173,1.201,0.357,1.776,0.555	c-1.501,1.313-3.171,2.436-4.976,3.328C43.324,46.515,44.399,45.211,45.35,43.749z M48.727,42.762	c-0.747-0.281-1.523-0.542-2.325-0.782c0.965-1.785,1.758-3.757,2.354-5.865c1.32,0.359,2.573,0.774,3.783,1.218	C51.532,39.326,50.245,41.152,48.727,42.762z M52.539,16.668c-1.21,0.444-2.463,0.859-3.783,1.218	c-0.597-2.108-1.389-4.08-2.354-5.865c0.803-0.241,1.579-0.501,2.325-0.782C50.245,12.848,51.532,14.674,52.539,16.668z M47.126,9.696c-0.575,0.197-1.169,0.381-1.776,0.555c-0.952-1.462-2.026-2.765-3.2-3.883C43.956,7.259,45.626,8.382,47.126,9.696z M18.65,10.25c-0.608-0.173-1.201-0.357-1.776-0.555c1.501-1.313,3.171-2.436,4.976-3.328C20.676,7.485,19.602,8.789,18.65,10.25z M15.273,11.238c0.747,0.281,1.523,0.542,2.325,0.782c-0.965,1.785-1.758,3.757-2.354,5.865c-1.32-0.359-2.573-0.774-3.783-1.218	C12.468,14.674,13.755,12.848,15.273,11.238z"></path></svg>