<svg xmlns="http://www.w3.org/2000/svg" viewBox="0 0 48 48"><path fill="#41a571" d="M16.973 3.983L9.973 3.983 19.973 21.983 26.973 21.983z"></path><path fill="#398e5f" d="M26.973 21.983L26.905 21.852 26.839 21.983zM22.802 14.42L19.357 20.844 20.474 23.025 23.958 16.592z"></path><path fill="#5ec08f" d="M30.973 3.983L20.973 21.983 27.973 21.983 37.973 3.983z"></path><path fill="#af8a77" d="M23.973 20.982999999999997A12 12 0 1 0 23.973 44.983A12 12 0 1 0 23.973 20.982999999999997Z"></path><path fill="#ceb1a1" d="M23.973,22.983c-5.521,0-10,4.479-10,10s4.479,10,10,10s10-4.479,10-10S29.495,22.983,23.973,22.983z M15.987,33.29c-0.026,0.006-0.052-0.011-0.058-0.038c-0.001-0.006-0.001-0.013,0-0.019l0.044-0.251l0.052,0.249C16.031,33.258,16.014,33.284,15.987,33.29z M17.202,37.217c-0.267,0.165-0.617,0.082-0.782-0.185c-0.02-0.033-0.038-0.07-0.051-0.106l-0.175-0.485c-0.096-0.268,0.042-0.563,0.31-0.659c0.234-0.084,0.488,0.011,0.613,0.214l0.27,0.438C17.552,36.702,17.469,37.052,17.202,37.217z M19.926,39.92c-0.274,0.387-0.81,0.478-1.197,0.204c-0.027-0.019-0.053-0.04-0.077-0.061l-0.382-0.343c-0.341-0.306-0.369-0.83-0.063-1.171c0.284-0.317,0.758-0.364,1.097-0.122l0.419,0.297C20.11,38.997,20.201,39.533,19.926,39.92z M23.416,41.042c-0.112,0.528-0.631,0.866-1.159,0.754c-0.008-0.002-0.021-0.005-0.029-0.006l-0.498-0.121c-0.521-0.127-0.84-0.651-0.713-1.172c0.124-0.511,0.633-0.827,1.144-0.72l0.502,0.106C23.19,39.995,23.528,40.514,23.416,41.042z M26.222,41.666l-0.498,0.121c-0.524,0.128-1.052-0.194-1.18-0.718s0.194-1.052,0.718-1.18c0.008-0.002,0.02-0.005,0.028-0.006l0.501-0.107c0.523-0.111,1.038,0.223,1.149,0.746C27.049,41.037,26.728,41.542,26.222,41.666z M26.119,36.201c-0.569,0.521-1.316,0.782-2.243,0.782c-0.862,0-1.561-0.258-2.098-0.772c-0.536-0.516-0.805-1.192-0.805-2.029h1.956c0,0.351,0.095,0.646,0.283,0.885s0.429,0.358,0.719,0.358c0.337,0,0.602-0.121,0.799-0.363c0.196-0.242,0.293-0.564,0.293-0.967c0-0.963-0.385-1.446-1.154-1.451h-0.961V31.12h0.947c0.359,0,0.623-0.122,0.792-0.366c0.168-0.244,0.252-0.57,0.252-0.978c0-0.39-0.086-0.693-0.26-0.911c-0.172-0.217-0.404-0.326-0.694-0.326c-0.272,0-0.495,0.104-0.667,0.311c-0.174,0.207-0.26,0.469-0.26,0.785h-1.956c0-0.508,0.12-0.964,0.363-1.367c0.241-0.404,0.581-0.719,1.015-0.946c0.436-0.227,0.918-0.341,1.449-0.341c0.926,0,1.652,0.247,2.177,0.742c0.525,0.495,0.788,1.172,0.788,2.032c0,0.441-0.119,0.85-0.356,1.227c-0.238,0.376-0.55,0.665-0.937,0.865c0.475,0.196,0.828,0.49,1.062,0.882c0.232,0.392,0.349,0.856,0.349,1.39C26.973,34.986,26.689,35.679,26.119,36.201z M29.677,39.714l-0.381,0.344c-0.351,0.317-0.893,0.289-1.21-0.062c-0.317-0.351-0.289-0.893,0.062-1.21c0.024-0.022,0.054-0.045,0.08-0.064l0.419-0.296c0.373-0.263,0.888-0.175,1.151,0.198C30.042,38.97,29.984,39.438,29.677,39.714z M31.751,36.439l-0.174,0.482c-0.106,0.294-0.43,0.446-0.724,0.34c-0.294-0.106-0.446-0.43-0.34-0.724c0.013-0.036,0.031-0.073,0.051-0.105l0.269-0.437c0.149-0.241,0.464-0.316,0.706-0.168C31.748,35.958,31.832,36.215,31.751,36.439z M31.922,33.25c-0.001-0.006-0.001-0.013,0-0.018l0.052-0.249l0.044,0.251c0.005,0.026-0.013,0.052-0.04,0.056S31.926,33.277,31.922,33.25z"></path></svg>