<svg xmlns="http://www.w3.org/2000/svg" viewBox="0 0 24 24"><path d="M 3 5 C 1.9069372 5 1 5.9069372 1 7 L 1 18 C 1 19.093063 1.9069372 20 3 20 L 21 20 C 22.093063 20 23 19.093063 23 18 L 23 7 C 23 5.9069372 22.093063 5 21 5 L 3 5 z M 3 7 L 21 7 L 21 18 L 3 18 L 3 7 z M 5.0253906 10 L 6.2949219 12.478516 L 5 15 L 6.2617188 15 L 6.9980469 13.251953 L 7.7382812 15 L 9 15 L 7.703125 12.478516 L 8.9707031 10 L 7.7246094 10 L 6.9960938 11.716797 L 6.2714844 10 L 5.0253906 10 z M 16 10 L 16 15 L 19 15 L 19 14 L 17 14 L 17 10 L 16 10 z M 10 10.023438 L 10 15 L 11 15 L 11 13.652344 L 10.898438 11.578125 L 12.117188 15 L 12.876953 15 L 14.103516 11.578125 L 14 13.652344 L 14 15 L 15 15 L 15 10.023438 L 13.542969 10.023438 L 12.501953 13.623047 L 11.457031 10.023438 L 10 10.023438 z"></path></svg>